<svg width="757" height="68" viewBox="0 0 757 68" fill="none" xmlns="http://www.w3.org/2000/svg" xmlns:xlink="http://www.w3.org/1999/xlink" x="0px" y="0px" xml:space="preserve">
<path d="M149.317 36.7853C149.317 43.943 145.421 46.933 140.347 46.933C135.5 46.933 132.827 44.1242 132.827 38.688V15.8104H125.307V39.2769C125.307 48.3827 130.38 53.3206 137.538 53.3206C143.201 53.3206 146.87 50.1494 149.407 46.1175V52.5958H156.837V15.8104H149.317V36.7853Z" fill="black"/>
<path d="M102.293 2.5368H84.1719V52.5958H91.692V33.8859H102.293C112.576 33.8859 119.644 27.906 119.644 18.2114C119.644 8.42609 112.576 2.5368 102.293 2.5368ZM111.942 18.6191C111.942 23.6929 108.544 27.1359 101.93 27.1359H91.692V9.24153H101.93C108.544 9.24153 111.942 12.6845 111.942 17.849V18.6191Z" fill="black"/>
<path d="M306.334 2.5368H290.433V52.5958H306.334C320.559 52.5958 331.522 43.6712 331.522 27.5889C331.522 11.4613 320.559 2.5368 306.334 2.5368ZM323.775 28.8121C323.775 38.9598 316.799 45.7551 305.745 45.7551H297.953V9.42274H305.745C316.799 9.42274 323.775 16.1728 323.775 26.3658V28.8121Z" fill="black"/>
<path d="M255.052 21.3372C259.854 21.3372 263.161 24.0553 263.795 28.6761H271.451C270.636 21.9261 265.2 15.0402 255.052 15.0402C244.678 15.0402 237.112 22.1979 237.112 34.1577C237.112 46.1628 244.678 53.2752 255.052 53.2752C265.2 53.2752 270.636 46.4346 271.451 39.594H263.795C263.116 44.3054 259.809 47.0235 255.052 47.0235C249.027 47.0235 244.814 42.9916 244.814 35.1543V33.0704C244.859 25.3691 249.027 21.3372 255.052 21.3372Z" fill="black"/>
<path d="M214.008 -0.00012207H206.488V52.5957H217.451V46.2534H214.008V-0.00012207Z" fill="black"/>
<path d="M184.335 15.0855C178.899 15.0855 174.912 17.6677 172.285 22.2433V-0.00012207H164.765V52.6411H172.149V45.9363C174.776 50.7384 178.854 53.3659 184.381 53.3659C193.305 53.3659 200.055 46.6159 200.055 34.2484C200.01 21.8355 193.26 15.0855 184.335 15.0855ZM192.354 35.1544C192.354 43.0823 188.367 47.2954 182.206 47.2954C175.864 47.2954 172.285 42.8105 172.285 35.8792V32.4363C172.285 25.6862 175.909 21.2466 182.206 21.2466C188.367 21.2466 192.354 25.3691 192.354 33.1611V35.1544Z" fill="black"/>
<path d="M353.947 15.0855C343.437 15.0855 336.053 22.6057 336.053 34.203C336.053 45.8457 343.392 53.3206 353.947 53.3206C364.457 53.3206 371.841 45.8004 371.841 34.203C371.841 22.5604 364.503 15.0855 353.947 15.0855ZM364.185 35.245C364.185 43.037 359.836 47.1142 353.947 47.1142C348.058 47.1142 343.799 43.0823 343.799 35.245V33.1611C343.799 25.3691 348.058 21.2919 353.947 21.2919C359.836 21.2919 364.185 25.3238 364.185 33.1611V35.245Z" fill="black"/>
<path d="M230.86 1.35895H222.842V9.28684H230.86V1.35895Z" fill="black"/>
<path d="M230.634 15.8104H223.114V52.5958H230.634V15.8104Z" fill="black"/>
<path d="M486.41 1.35895H478.392V9.28684H486.41V1.35895Z" fill="black"/>
<path d="M645.965 22.1527V15.8104H638.626V52.5958H646.146V30.3524C646.146 25.0521 648.411 22.8323 653.213 22.8323H657.834V15.4027H656.339C651.854 15.448 648.23 17.0336 645.965 22.1527Z" fill="black"/>
<path d="M677.54 15.0855C668.842 15.0855 662.319 19.661 661.775 28.4044H669.34C669.476 23.4664 672.194 21.1107 677.223 21.1107C681.708 21.1107 684.562 23.104 684.562 28.6309V29.4463L672.421 32.4816C666.668 33.9312 661.594 37.3289 661.594 43.5806C661.594 49.1075 665.626 53.3659 672.919 53.3659C678.446 53.3659 682.025 50.8743 684.607 46.4346V52.5957H692.037V29.401C692.082 20.5671 686.963 15.0855 677.54 15.0855ZM684.607 38.5521C684.607 44.3507 680.621 47.7484 675.32 47.7484C671.651 47.7484 669.159 46.1175 669.159 42.6746C669.159 39.7299 671.062 37.9631 674.958 37.0118L684.607 34.7467V38.5521Z" fill="black"/>
<path d="M421.356 15.0855C415.241 15.0855 411.209 18.755 408.853 23.3305C407.177 17.9396 402.873 15.0855 397.437 15.0855C391.683 15.0855 388.105 18.2567 385.658 22.4245V15.8103H378.319V52.5957H385.84V31.6208C385.84 24.4631 389.6 21.4731 394.673 21.4731C399.521 21.4731 402.239 24.3272 402.239 29.8087V52.641H409.759V31.6208C409.759 24.4631 413.519 21.4731 418.593 21.4731C423.44 21.4731 426.158 24.3272 426.158 29.8087V52.641H433.679V29.2198C433.679 20.0688 428.514 15.0855 421.356 15.0855Z" fill="black"/>
<path d="M616.428 15.0855C610.992 15.0855 607.005 17.6677 604.378 22.2433V-0.00012207H596.857V52.6411H604.196V45.9363C606.824 50.7384 610.901 53.3659 616.428 53.3659C625.352 53.3659 632.103 46.6159 632.103 34.2484C632.103 21.8355 625.352 15.0855 616.428 15.0855ZM624.446 35.1544C624.446 43.0823 620.46 47.2954 614.299 47.2954C607.956 47.2954 604.378 42.8105 604.378 35.8792V32.4363C604.378 25.6862 608.002 21.2466 614.299 21.2466C620.46 21.2466 624.446 25.3691 624.446 33.1611V35.1544Z" fill="black"/>
<path d="M707.168 22.1527V15.8104H699.829V52.5958H707.349V30.3524C707.349 25.0521 709.614 22.8323 714.416 22.8323H719.037V15.4027H717.588C713.057 15.448 709.478 17.0336 707.168 22.1527Z" fill="black"/>
<path d="M749.299 15.8104L742.005 39.3675L739.423 48.0202H739.287L736.705 39.4128L729.184 15.8104H721.302L733.171 51.8709H738.018L733.216 67.319H740.736L757 15.8104H749.299Z" fill="black"/>
<path d="M589.156 1.35895H581.138V9.28684H589.156V1.35895Z" fill="black"/>
<path d="M456.42 15.0855C447.722 15.0855 441.198 19.661 440.655 28.4044H448.22C448.356 23.4664 451.074 21.1107 456.103 21.1107C460.588 21.1107 463.442 23.104 463.442 28.6309V29.4463L451.301 32.4816C445.547 33.9312 440.474 37.3289 440.474 43.5806C440.474 49.1075 444.506 53.3659 451.799 53.3659C457.326 53.3659 460.905 50.8743 463.487 46.4346V52.5957H470.917V29.401C470.962 20.5671 465.843 15.0855 456.42 15.0855ZM463.487 38.5521C463.487 44.3507 459.501 47.7484 454.2 47.7484C450.531 47.7484 448.039 46.1175 448.039 42.6746C448.039 39.7299 449.942 37.9631 453.838 37.0118L463.487 34.7467V38.5521Z" fill="black"/>
<path d="M588.929 15.8104H581.409V52.5958H588.929V15.8104Z" fill="black"/>
<path d="M486.229 15.8104H478.709V52.5958H486.229V15.8104Z" fill="black"/>
<path d="M552.325 2.5368H544.851V52.5958H575.837V45.7551H552.325V2.5368Z" fill="black"/>
<path d="M513.275 15.0855C507.521 15.0855 503.942 18.2567 501.496 22.4245V15.8103H494.157V52.5957H501.677V31.6208C501.677 24.4631 505.437 21.4731 510.511 21.4731C515.449 21.4731 518.394 24.3272 518.394 29.8087V52.641H525.914V29.2198C525.869 20.0688 520.523 15.0855 513.275 15.0855Z" fill="black"/>
<path d="M42.7653 39.6395C38.6428 39.6395 35.0186 41.5422 32.6176 44.5321C30.2619 41.5422 26.5924 39.6395 22.4699 39.6395H0V45.3022H22.4699C26.5018 45.3022 29.7636 48.564 29.7636 52.5959H35.4263C35.4263 48.564 38.6881 45.3022 42.72 45.3022H65.2352V39.6395H42.7653Z" fill="black"/>
<path d="M48.3826 21.6545L46.7518 17.7132L36.5588 21.9264L40.7719 11.7334L36.8306 10.1025L32.6175 20.2955L28.4044 10.1025L24.4631 11.7334L28.6762 21.9264L18.4832 17.7132L16.8523 21.6545L27.0453 25.8676L14.9043 30.8962L16.5352 34.8375L27.9513 30.0808C28.495 29.8542 29.1292 29.8995 29.6275 30.262C30.1258 30.6244 30.443 31.168 30.443 31.7569V36.3325H34.7014V31.7569C34.7014 31.1227 35.0185 30.5791 35.5168 30.262C36.0151 29.9448 36.6494 29.8542 37.2383 30.0808L48.6544 34.8375L50.2853 30.8962L38.1443 25.8676L48.3826 21.6545Z" fill="black"/>
<path d="M56.2193 13.8173L49.9223 16.4448H49.877L51.5078 20.3861L57.8501 17.7586L56.2193 13.8173Z" fill="black"/>
<path d="M24.4915 0.667552L20.5576 2.2981L23.1769 8.61747L27.1108 6.98693L24.4915 0.667552Z" fill="black"/>
<path d="M9.00261 13.7867L7.37207 17.7206L13.6914 20.3399L15.322 16.406L9.00261 13.7867Z" fill="black"/>
<path d="M44.6681 2.31057L40.7721 0.679688L38.1445 6.9767L42.0858 8.60757L44.6681 2.31057Z" fill="black"/>
</svg>
