
<svg width="151" height="122" viewBox="0 0 151 122" fill="none" xmlns="http://www.w3.org/2000/svg" xmlns:xlink="http://www.w3.org/1999/xlink" x="0px" y="0px" xml:space="preserve">
<path d="M98.9529 91.7951C89.463 91.7951 80.9923 96.2343 75.4887 103.142C69.985 96.2343 61.5143 91.7951 52.0244 91.7951H0V104.909H52.0244C61.3558 104.909 68.9431 112.496 68.9431 121.828H82.0568C82.0568 112.496 89.6442 104.909 98.9755 104.909H151V91.7951H98.9529Z" fill="black"/>
<path d="M33.1806 40.927H17.3037V50.7566H33.1806V40.927Z" fill="#FF7626"/>
<path d="M80.3804 -0.000549316H70.5508V15.831H80.3804V-0.000549316Z" fill="#FF7626"/>
<path d="M80.4032 41.3564V23.7582H70.5736V41.3337C63.3713 29.8507 52.8395 22.5804 41.1074 22.5804V32.4101C50.2802 32.4101 58.4791 38.8876 63.8922 49.0117C57.4599 43.9383 49.6007 40.926 41.1074 40.926V50.7556C57.1881 50.7556 70.2792 65.5001 70.551 83.7097V84.276H70.5736H80.3806H80.4032C80.4032 65.7945 93.6301 50.7556 109.892 50.7556V40.926C101.376 40.926 93.5169 43.961 87.062 49.057C92.4751 38.9103 100.697 32.4327 109.892 32.4327V22.6031C98.1599 22.5804 87.6055 29.8734 80.4032 41.3564Z" fill="#FF7626"/>
<path d="M133.719 40.927H117.842V50.7566H133.719V40.927Z" fill="#FF7626"/>
</svg>
