<svg width="131" height="109" viewBox="0 0 131 109" fill="none" xmlns="http://www.w3.org/2000/svg">
<path d="M82.7156 0.899914L77.3887 13.7603L85.2878 17.0323L90.6148 4.17185L82.7156 0.899914Z" fill="black"/>
<path d="M111.81 39.7465L118.66 36.9065L115.39 29.0065L102.53 34.3265L105.79 42.2265L111.81 39.7465Z" fill="black"/>
<path d="M42.3502 11.1065L44.8302 17.0165L44.8702 17.1165L52.7602 13.8065L47.3802 0.966492L39.4902 4.27649L42.3502 11.1065Z" fill="black"/>
<path d="M31.8603 72.8565L40.6303 69.2265L55.4903 63.0765C56.7103 62.5765 58.0303 62.7065 59.1203 63.4365C60.2103 64.1665 60.8403 65.3365 60.8403 66.6465V76.7465H69.3903V66.6465C69.3903 65.3365 70.0203 64.1665 71.1103 63.4365C72.2003 62.7065 73.5303 62.5765 74.7403 63.0765L98.3603 72.8565L101.63 64.9565L76.2803 54.4465L99.3603 44.8865L96.0803 36.9865L73.0903 46.5165L82.6203 23.5165L74.7203 20.2365L65.1003 43.3465L55.4603 20.2465L47.5703 23.5365L57.1603 46.5265L34.1303 36.9865L30.8603 44.8865L53.9403 54.4465L28.5903 64.9565L31.8603 72.8565Z" fill="black"/>
<path d="M18.39 39.7465L24.41 42.2265L27.68 34.3265L14.81 29.0065L11.54 36.9065L18.4 39.7465H18.39Z" fill="black"/>
<path d="M85.4804 82.9765C77.4504 82.9765 70.2703 86.6565 65.5303 92.4165C60.8004 86.4065 53.4604 82.5465 45.2304 82.5465H0.360352V93.9465H45.2404C53.1904 93.9465 59.6604 100.416 59.6604 108.366C59.6604 108.506 59.6604 108.657 59.6604 108.797H71.0603C71.0603 100.847 77.5304 94.3765 85.4804 94.3765H130.36V82.9765H85.4804Z" fill="black"/>
</svg>
