<svg width="151" height="121" viewBox="0 0 151 121" fill="none" xmlns="http://www.w3.org/2000/svg">
<path d="M98.9889 90.2085C89.4465 90.2085 81.0576 94.6126 75.5 101.533C70.0472 94.6126 61.5535 90.2085 52.0111 90.2085H0V103.316H52.0111C61.3438 103.316 68.8938 110.866 68.8938 120.199H82.0014C82.0014 110.866 89.5514 103.316 98.884 103.316H151V90.2085H98.9889Z" fill="black"/>
<path d="M111.99 48.5787L108.215 39.4558L84.6217 49.2079L94.3737 25.6141L85.2508 21.8391L75.4987 45.4329L65.7467 21.8391L56.6237 25.6141L66.3758 49.2079L42.7821 39.4558L39.0071 48.5787L62.6008 58.3308L34.498 69.9704L38.273 79.0933L64.698 68.0829C65.9564 67.5586 67.4244 67.6634 68.5779 68.5023C69.7314 69.3412 70.4654 70.5995 70.4654 71.9627V82.5537H80.3223V71.9627C80.3223 70.4947 81.0564 69.2363 82.2099 68.5023C83.3633 67.7683 84.8314 67.5586 86.1946 68.0829L112.62 79.0933L116.395 69.9704L88.2918 58.3308L111.99 48.5787Z" fill="black"/>
<path d="M130.132 30.4377L115.556 36.5197H115.451L119.226 45.6426L133.907 39.5607L130.132 30.4377Z" fill="black"/>
<path d="M56.6918 0.000129872L47.5859 3.77435L53.6488 18.4018L62.7546 14.6276L56.6918 0.000129872Z" fill="black"/>
<path d="M20.8387 30.3672L17.0645 39.473L31.6919 45.5359L35.4662 36.43L20.8387 30.3672Z" fill="black"/>
<path d="M103.393 3.8032L94.3749 0.0281982L88.293 14.6039L97.4159 18.3789L103.393 3.8032Z" fill="black"/>
</svg>
