<svg width="1600" height="2400" viewBox="100 0 1600 2400" fill="none" xmlns="http://www.w3.org/2000/svg" preserveAspectRatio="xMinYMid meet">
<rect width="1600" height="2400"/>
<path d="M1377.27 250.04C1377.27 268.34 1383.22 282.06 1391.45 294.41C1399.68 306.76 1410.21 316.37 1421.18 326.89C1435.36 341.07 1450 356.17 1450 371.26C1450 386.35 1447.26 401.45 1433.99 401.45C1424.38 401.45 1419.35 395.05 1416.15 387.27C1412.95 379.95 1412.49 370.34 1412.49 363.48H1369.49C1369.49 376.75 1371.32 395.96 1380.47 411.51C1389.62 427.06 1406.09 439.87 1433.99 439.87C1455.95 439.87 1470.59 430.26 1480.19 417C1489.34 404.19 1493 387.27 1493 371.26C1493 355.25 1487.05 340.61 1479.28 327.8C1471.5 315.45 1460.07 304.47 1450.46 294.86C1443.14 288 1435.82 280.68 1430.33 273.36C1424.38 266.04 1420.27 257.81 1420.27 250.03C1420.27 244.08 1420.73 236.31 1423.01 230.82C1424.84 225.33 1428.5 220.76 1434.45 220.76C1441.77 220.76 1445.43 225.33 1447.72 230.82C1449.55 236.77 1449.55 244.09 1449.55 250.03H1492.55C1492.55 235.85 1491.18 218.47 1483.4 205.2C1475.62 191.93 1460.53 181.87 1433.54 182.33C1411.58 182.79 1397.4 192.39 1388.71 205.2C1380.02 218.47 1377.27 235.39 1377.27 250.03M1298.13 227.17C1303.62 227.17 1309.11 228.54 1309.11 238.15V436.23H1355.31V231.29C1355.31 220.77 1352.57 208.42 1347.08 198.81C1341.59 189.66 1332.9 182.34 1320.55 182.34C1316.43 182.34 1312.77 183.26 1308.66 185.54C1300.43 190.11 1293.56 196.98 1288.53 202.01C1285.79 204.76 1283.95 206.59 1283.04 207.04V186H1236.84V436.22H1283.04V239.06C1284.41 236.77 1285.78 234.94 1287.16 233.11C1290.36 229.91 1293.11 227.16 1298.14 227.16M1170.96 374.01C1171.42 379.04 1170.96 383.16 1169.59 386.82C1167.76 393.68 1163.64 399.17 1154.95 399.17C1150.83 399.17 1147.63 397.8 1145.34 395.51C1141.22 390.48 1138.94 383.62 1139.39 374.01V248.21C1138.93 243.18 1139.39 239.06 1140.76 235.4C1142.59 228.54 1146.25 222.59 1154.94 222.59C1159.06 222.59 1162.72 223.96 1165 226.25C1169.58 231.74 1171.41 238.6 1170.95 248.21V374.01H1170.96ZM1214.41 246.84C1213.95 234.95 1211.21 224.42 1207.09 214.82C1199.77 198.81 1184.67 182.34 1154.94 182.34C1139.84 182.34 1128.41 185.54 1120.63 192.4C1104.62 206.12 1097.3 223.96 1095.93 248.21V374.01C1096.39 386.36 1099.13 397.34 1103.25 406.95C1110.57 423.42 1125.21 439.89 1154.94 439.89C1170.04 439.89 1181.47 436.69 1189.71 429.83C1205.72 416.56 1213.04 399.64 1214.41 375.39V246.85V246.84ZM1073.52 186H1027.32V436.22H1073.52V186ZM1027.32 146.2H1073.52V100H1027.32V146.2ZM934 124.25V186.01H910.67V227.64H934V355.73C934 370.37 934.46 391.41 940.86 408.79C947.26 426.17 960.07 439.9 987.06 439.9C994.38 439.9 1000.33 439.44 1004.9 438.53C1007.19 438.07 1009.48 437.16 1011.76 436.7V391.41C1009.93 391.87 1008.1 391.87 1006.27 392.33C1003.07 392.79 998.49 393.24 994.83 393.24C987.51 393.24 983.85 386.38 982.02 378.14C980.19 369.91 980.19 359.84 980.19 352.07V227.64H1011.75V186.01H980.19V124.25H933.99H934ZM826.95 371.27C826.95 347.48 836.56 325.07 858.97 315.46V379.5C858.97 388.19 850.28 394.6 839.76 394.6C834.27 394.6 831.07 390.48 829.24 384.99C827.41 379.96 826.95 374.47 826.95 371.27ZM781.66 378.13C781.66 404.2 788.06 419.76 795.84 428.45C803.16 437.6 812.77 439.89 818.71 439.89C827.86 439.89 836.55 436.23 842.95 431.2C849.36 426.17 853.47 420.22 855.76 416.1H858.96C858.96 419.3 858.96 431.2 863.08 436.23H908.37C906.54 425.25 905.17 415.19 905.17 392.77V239.07C905.17 222.6 898.76 208.42 888.24 198.36C877.72 188.3 864 182.35 848.9 182.35C831.06 182.35 815.51 189.67 804.53 202.02C793.55 214.37 786.69 230.84 786.69 249.14V259.66H832.89V247.77C832.89 243.65 833.35 239.54 833.8 235.88C835.17 228.56 838.38 222.61 846.15 222.61C852.1 222.61 855.76 225.81 857.59 230.39C858.96 234.96 858.96 241.37 858.96 245.49V272.94C857.13 277.97 848.44 282.09 837 288.04C825.56 293.99 811.84 302.68 800.86 316.4C789.88 330.12 781.65 350.25 781.65 378.16M696.58 124.25V186.01H673.25V227.64H696.58V355.73C696.58 370.37 697.04 391.41 703.44 408.79C709.84 426.17 722.65 439.9 749.64 439.9C756.96 439.9 762.91 439.44 767.48 438.53C769.77 438.07 772.05 437.16 774.34 436.7V391.41C772.51 391.87 770.68 391.87 768.85 392.33C765.65 392.79 761.07 393.24 757.41 393.24C750.09 393.24 746.43 386.38 744.6 378.14C742.77 369.9 742.77 359.84 742.77 352.07V227.64H774.34V186.01H742.77V124.25H696.57H696.58ZM661.35 186H615.15V436.22H661.35V186ZM615.15 146.2H661.35V100H615.15V146.2ZM541.51 381.33C541.51 390.02 534.65 396.43 527.79 396.43C520.93 396.43 515.44 390.03 515.44 381.33V240.89C515.44 232.2 520.93 225.79 527.79 225.79C534.65 225.79 541.51 233.57 541.51 240.89V381.33ZM587.71 100H541.51V202.47C537.39 198.81 533.73 195.61 529.62 192.41C522.76 187.38 513.61 182.35 504.92 182.35C492.11 182.35 483.42 189.67 477.93 198.82C471.98 208.43 469.24 220.78 469.24 231.3V390.95C469.24 401.47 471.99 413.82 477.93 422.97C483.42 432.58 492.11 439.9 504.92 439.9C509.04 439.9 513.61 438.99 518.19 436.7C526.88 432.58 533.74 427.09 541.52 419.78V436.25H587.72V100H587.71ZM372.25 248.21C372.71 243.18 373.16 239.06 374.54 235.4C376.83 228.54 380.49 222.59 389.18 222.59C393.3 222.59 396.96 223.96 399.24 226.25C403.82 231.74 405.64 238.6 405.64 248.21V283.43H372.25V248.21ZM405.65 346.57V374.02C405.65 379.05 405.19 383.17 403.82 386.83C401.99 393.69 397.87 399.18 389.18 399.18C385.06 399.18 381.86 397.81 379.57 395.52C375.45 390.49 372.71 383.63 372.25 374.02V319.58H448.64V246.85C448.18 234.96 445.44 224.43 441.32 214.83C434 198.82 418.9 182.35 389.17 182.35C374.07 182.35 362.64 185.55 354.86 192.41C338.39 206.13 330.62 223.97 329.24 248.22V374.02C329.7 386.37 332.44 397.35 336.56 406.96C343.88 423.43 358.97 439.9 388.71 439.9C403.81 439.9 415.24 436.7 423.48 429.84C439.95 416.57 447.27 399.65 448.64 375.4V346.58H405.64L405.65 346.57ZM223.58 436.23L255.14 224.89L256.97 210.71H259.72V436.23H305.46V100H245.08L215.8 253.7L213.51 271.54H212.59L210.3 253.7L181.04 100H120.66V436.23H166.41V210.7H169.15L170.98 224.88L202.54 436.22H223.58V436.23Z" fill="black"/>
<path d="M968.6 1205.99C968.6 1224.55 974.63 1238.47 982.98 1251C991.33 1263.53 1002 1273.27 1013.14 1283.94C1027.52 1298.32 1042.37 1313.63 1042.37 1328.95C1042.37 1344.27 1039.59 1359.57 1026.13 1359.57C1016.39 1359.57 1011.28 1353.07 1008.03 1345.19C1004.78 1337.77 1004.32 1328.02 1004.32 1321.06H960.71C960.71 1334.52 962.57 1354 971.85 1369.78C981.13 1385.55 997.83 1398.55 1026.14 1398.55C1048.41 1398.55 1063.26 1388.81 1073 1375.35C1082.28 1362.36 1085.99 1345.19 1085.99 1328.95C1085.99 1312.71 1079.96 1297.86 1072.07 1284.87C1064.18 1272.34 1052.58 1261.21 1042.84 1251.46C1035.42 1244.5 1027.99 1237.08 1022.42 1229.65C1016.39 1222.23 1012.21 1213.88 1012.21 1205.99C1012.21 1199.96 1012.67 1192.07 1014.99 1186.5C1016.85 1180.93 1020.56 1176.29 1026.59 1176.29C1034.01 1176.29 1037.73 1180.93 1040.05 1186.5C1041.91 1192.53 1041.91 1199.96 1041.91 1205.99H1085.52C1085.52 1191.61 1084.13 1173.98 1076.24 1160.52C1068.35 1147.06 1053.04 1136.86 1025.67 1137.32C1003.4 1137.78 989.01 1147.53 980.2 1160.52C971.38 1173.98 968.6 1191.14 968.6 1205.99ZM882.77 1353.08C877.2 1353.08 871.63 1351.69 871.63 1341.94V1141.03H824.77V1348.9C824.77 1359.57 827.55 1372.1 833.12 1381.38C838.69 1391.12 847.5 1398.55 860.03 1398.55C864.21 1398.55 868.38 1397.16 872.56 1394.84C880.91 1390.2 887.41 1383.7 892.98 1378.14C895.3 1375.82 897.16 1373.96 898.08 1373.5V1394.84H944.94V1141.04H898.08V1341.02C896.69 1343.34 895.3 1345.66 893.91 1347.05C890.66 1350.3 887.88 1353.08 882.77 1353.08ZM797.86 1141.04H751V1394.84H797.86V1141.04ZM750.99 1100.67H797.85V1053.81H750.99V1100.67ZM723.16 1053.81H676.3V1394.84H723.16V1053.81ZM577 1204.14C577.46 1199.04 577.93 1194.86 579.32 1191.15C581.64 1184.19 585.35 1178.16 594.17 1178.16C598.35 1178.16 602.06 1179.55 604.38 1181.87C609.02 1187.44 610.88 1194.4 610.88 1204.14V1239.87H577.01V1204.14H577ZM610.87 1303.9V1331.74C610.87 1336.84 610.41 1341.02 609.01 1344.73C607.15 1351.69 602.98 1357.26 594.16 1357.26C589.98 1357.26 586.74 1355.87 584.42 1353.55C580.24 1348.45 577.46 1341.49 577 1331.74V1276.53H654.49V1202.76C654.03 1190.7 651.24 1180.02 647.07 1170.28C639.65 1154.04 624.34 1137.34 594.18 1137.34C578.87 1137.34 567.27 1140.59 559.38 1147.55C542.68 1161.47 534.79 1179.56 533.4 1204.16V1331.76C533.86 1344.29 536.65 1355.42 540.82 1365.17C548.24 1381.87 563.56 1398.58 593.72 1398.58C609.03 1398.58 620.63 1395.33 628.98 1388.37C645.68 1374.92 653.11 1357.75 654.5 1333.16V1303.93H610.89L610.87 1303.9ZM525.97 1137.32C508.8 1137.32 497.67 1143.82 490.24 1150.78C482.82 1158.2 479.57 1166.09 479.1 1169.34V1141.04H432.24V1394.84H479.1V1218.52C479.1 1210.63 480.49 1202.75 489.31 1195.32C496.73 1188.36 505.55 1187.43 512.97 1187.43C517.15 1187.43 521.79 1187.89 525.96 1189.29V1137.32H525.97ZM342.24 1353.08C336.67 1353.08 331.1 1351.69 331.1 1341.94V1141.03H284.24V1348.9C284.24 1359.57 287.02 1372.1 292.59 1381.38C298.16 1391.12 306.97 1398.55 319.5 1398.55C323.68 1398.55 327.85 1397.16 332.03 1394.84C340.38 1390.2 346.88 1383.7 352.45 1378.14C354.77 1375.82 356.63 1373.96 357.55 1373.5V1394.84H404.41V1141.04H357.55V1341.02C356.16 1343.34 354.77 1345.66 353.37 1347.05C350.12 1350.3 347.34 1353.08 342.23 1353.08M206.29 1272.34H171.96L186.34 1164.7L187.73 1155.88H190.51L191.9 1164.7L206.28 1272.34H206.29ZM155.72 1394.84L165 1325.24H213.25L222.53 1394.84H271.25L219.75 1053.81H158.5L107 1394.84H155.72Z" fill="black"/>
<path d="M858.18 819.986C858.18 838.546 864.21 852.466 872.56 864.996C880.91 877.526 891.58 887.266 902.72 897.936C917.1 912.316 931.95 927.636 931.95 942.946C931.95 958.256 929.17 973.566 915.71 973.566C905.97 973.566 900.86 967.066 897.61 959.186C894.36 951.766 893.9 942.016 893.9 935.056H850.29C850.29 948.516 852.15 967.996 861.43 983.776C870.71 999.546 887.41 1012.55 915.72 1012.55C937.99 1012.55 952.84 1002.81 962.58 989.346C971.86 976.356 975.57 959.186 975.57 942.946C975.57 926.706 969.54 911.856 961.65 898.866C953.76 886.336 942.16 875.206 932.42 865.456C925 858.496 917.57 851.076 912.01 843.646C905.98 836.226 901.8 827.876 901.8 819.986C901.8 813.956 902.26 806.066 904.58 800.496C906.44 794.926 910.15 790.286 916.18 790.286C923.6 790.286 927.31 794.926 929.63 800.496C931.49 806.526 931.49 813.956 931.49 819.986H975.1C975.1 805.606 973.71 787.966 965.82 774.516C957.93 761.056 942.62 750.856 915.25 751.316C892.98 751.776 878.6 761.526 869.78 774.516C860.96 787.976 858.18 805.136 858.18 819.986ZM772.34 967.066C766.77 967.066 761.2 965.676 761.2 955.926V755.016H714.34V962.876C714.34 973.546 717.12 986.076 722.69 995.356C728.26 1005.1 737.07 1012.53 749.6 1012.53C753.78 1012.53 757.95 1011.14 762.13 1008.82C770.48 1004.18 776.98 997.676 782.55 992.116C784.87 989.796 786.73 987.936 787.65 987.476V1008.82H834.51V755.016H787.65V954.996C786.26 957.316 784.87 959.636 783.47 961.026C780.22 964.276 777.44 967.056 772.33 967.056M621.55 813.486C621.55 804.206 622.01 793.076 634.54 793.076C645.21 793.076 648 798.176 648 813.486V844.106H694.86V824.156C694.86 795.856 689.76 777.756 679.55 766.626C669.34 755.486 654.5 751.316 634.54 751.316C617.84 751.316 602.53 755.956 591.85 767.556C581.18 779.156 574.68 798.176 574.68 826.486V937.376C574.68 965.676 581.17 984.706 591.85 996.306C602.52 1007.91 617.83 1012.55 634.54 1012.55C654.49 1012.55 669.34 1008.37 679.55 997.236C689.76 986.096 694.86 968.006 694.86 939.706V915.116H648V950.376C648 965.686 645.22 970.786 634.54 970.786C622.01 970.786 621.55 959.656 621.55 950.376V813.496V813.486ZM569.13 751.316C551.96 751.316 540.83 757.816 533.4 764.776C525.98 772.196 522.73 780.086 522.26 783.336V755.036H475.4V1008.84H522.26V832.526C522.26 824.636 523.65 816.746 532.47 809.326C539.89 802.366 548.71 801.436 556.13 801.436C560.31 801.436 564.95 801.896 569.12 803.296V751.326L569.13 751.316ZM374.72 942.936C374.72 918.806 384.46 896.076 407.2 886.326V951.286C407.2 960.106 398.38 966.596 387.71 966.596C382.14 966.596 378.89 962.416 377.04 956.856C375.18 951.756 374.72 946.186 374.72 942.936ZM328.78 949.896C328.78 976.346 335.28 992.116 343.16 1000.94C350.58 1010.22 360.33 1012.54 366.36 1012.54C375.64 1012.54 384.46 1008.83 390.95 1003.72C397.45 998.616 401.62 992.576 403.94 988.406H407.19C407.19 991.656 407.19 1003.72 411.37 1008.82H457.31C455.45 997.676 454.06 987.476 454.06 964.736V808.836C454.06 792.136 447.56 777.746 436.89 767.546C426.22 757.336 412.3 751.306 396.99 751.306C378.89 751.306 363.12 758.726 351.98 771.256C340.84 783.786 333.88 800.486 333.88 819.046V829.716H380.74V817.656C380.74 813.476 381.2 809.306 381.67 805.596C383.06 798.176 386.31 792.136 394.2 792.136C400.23 792.136 403.94 795.386 405.8 800.026C407.19 804.666 407.19 811.166 407.19 815.336V843.176C405.33 848.276 396.52 852.456 384.92 858.486C373.32 864.516 359.4 873.336 348.27 887.256C337.14 901.176 328.78 921.596 328.78 949.896ZM225.32 1008.83L257.33 794.466L259.19 780.086H261.97V1008.83H308.37V667.796H247.12L217.43 823.696L215.11 841.786H214.18L211.86 823.696L182.17 667.796H120.92V1008.83H167.32V780.086H170.1L171.96 794.466L203.97 1008.83H225.31H225.32Z" fill="black"/>
<path d="M203.716 499.9L198.389 512.76L206.288 516.032L211.615 503.172L203.716 499.9Z" fill="black"/>
<path d="M232.81 538.746L239.66 535.906L236.39 528.006L223.53 533.326L226.79 541.226L232.81 538.746Z" fill="black"/>
<path d="M163.35 510.107L165.83 516.017L165.87 516.117L173.76 512.807L168.38 499.967L160.49 503.277L163.35 510.107Z" fill="black"/>
<path d="M152.86 571.856L161.63 568.226L176.49 562.076C177.71 561.576 179.03 561.706 180.12 562.436C181.21 563.166 181.84 564.336 181.84 565.646V575.746H190.39V565.646C190.39 564.336 191.02 563.166 192.11 562.436C193.2 561.706 194.53 561.576 195.74 562.076L219.36 571.856L222.63 563.956L197.28 553.446L220.36 543.886L217.08 535.986L194.09 545.516L203.62 522.516L195.72 519.236L186.1 542.346L176.46 519.246L168.57 522.536L178.16 545.526L155.13 535.986L151.86 543.886L174.94 553.446L149.59 563.956L152.86 571.856Z" fill="black"/>
<path d="M139.39 538.746L145.41 541.226L148.68 533.326L135.81 528.006L132.54 535.906L139.4 538.746H139.39Z" fill="black"/>
<path d="M206.48 581.977C198.45 581.977 191.27 585.657 186.53 591.417C181.8 585.407 174.46 581.547 166.23 581.547H121.36V592.947H166.24C174.19 592.947 180.66 599.417 180.66 607.367C180.66 607.507 180.66 607.657 180.66 607.797H192.06C192.06 599.847 198.53 593.377 206.48 593.377H251.36V581.977H206.48Z" fill="black"/>
<path d="M115.306 1621.74H100.294V1605.4H146.212V1621.74H131.201V1713.58H115.306V1621.74ZM175.358 1631.9V1648.38C174.034 1647.94 172.562 1647.79 171.237 1647.79C168.883 1647.79 166.086 1648.08 163.731 1650.29C160.935 1652.65 160.494 1655.15 160.494 1657.65V1713.58H145.629V1633.07H160.494V1642.05C160.641 1641.02 161.671 1638.52 164.026 1636.16C166.381 1633.96 169.913 1631.9 175.358 1631.9ZM175.4 1694.89C175.4 1685.91 178.049 1679.43 181.581 1675.02C185.113 1670.6 189.528 1667.81 193.207 1665.89C196.887 1663.98 199.683 1662.65 200.272 1661.04V1652.21C200.272 1650.88 200.272 1648.82 199.83 1647.35C199.241 1645.88 198.064 1644.85 196.151 1644.85C193.649 1644.85 192.619 1646.76 192.177 1649.11C192.03 1650.29 191.883 1651.62 191.883 1652.94V1656.77H177.018V1653.38C177.018 1647.5 179.226 1642.2 182.758 1638.22C186.29 1634.25 191.294 1631.9 197.034 1631.9C201.891 1631.9 206.306 1633.81 209.691 1637.05C213.076 1640.28 215.136 1644.85 215.136 1650.15V1699.6C215.136 1706.81 215.578 1710.04 216.166 1713.58H201.596C200.272 1711.96 200.272 1708.13 200.272 1707.1H199.241C198.506 1708.43 197.181 1710.34 195.121 1711.96C193.06 1713.58 190.264 1714.75 187.321 1714.75C185.407 1714.75 182.317 1714.02 179.962 1711.07C177.46 1708.28 175.4 1703.27 175.4 1694.89ZM189.97 1692.68C189.97 1693.71 190.117 1695.47 190.705 1697.09C191.294 1698.86 192.324 1700.18 194.09 1700.18C197.475 1700.18 200.272 1698.12 200.272 1695.33V1674.72C193.06 1677.81 189.97 1685.02 189.97 1692.68ZM241.673 1646.32C240.054 1646.32 239.171 1647.2 238.141 1648.23C237.7 1648.82 237.258 1649.41 236.817 1650.15V1713.58H221.952V1633.07H236.817V1639.84C237.111 1639.7 237.7 1639.11 238.583 1638.22C240.201 1636.61 242.409 1634.4 245.058 1632.93C246.383 1632.19 247.56 1631.9 248.885 1631.9C252.858 1631.9 255.655 1634.25 257.421 1637.19C259.187 1640.28 260.07 1644.26 260.07 1647.64V1713.58H245.205V1649.85C245.205 1646.76 243.439 1646.32 241.673 1646.32ZM267.139 1653.68C267.139 1648.97 268.022 1643.52 270.818 1639.25C273.614 1635.13 278.177 1632.04 285.241 1631.9C293.924 1631.75 298.781 1634.99 301.283 1639.25C303.785 1643.52 304.226 1649.11 304.226 1653.68H290.392C290.392 1651.76 290.392 1649.41 289.803 1647.5C289.067 1645.73 287.89 1644.26 285.535 1644.26C283.622 1644.26 282.445 1645.73 281.856 1647.5C281.12 1649.26 280.973 1651.76 280.973 1653.68C280.973 1656.18 282.297 1658.83 284.211 1661.18C285.977 1663.54 288.332 1665.89 290.686 1668.1C293.777 1671.19 297.456 1674.72 299.958 1678.7C302.46 1682.82 304.373 1687.38 304.373 1692.68C304.373 1697.83 303.196 1703.27 300.253 1707.4C297.162 1711.66 292.452 1714.75 285.388 1714.75C276.411 1714.75 271.112 1710.63 268.169 1705.63C265.225 1700.63 264.637 1694.44 264.637 1690.18H278.471C278.471 1692.38 278.618 1695.47 279.648 1697.83C280.679 1700.33 282.297 1702.39 285.388 1702.39C289.656 1702.39 290.539 1697.39 290.539 1692.68C290.539 1687.82 285.83 1682.96 281.267 1678.4C277.735 1675.02 274.35 1671.93 271.701 1667.95C269.052 1663.98 267.139 1659.56 267.139 1653.68ZM325.068 1713.58H310.204V1605.4H325.068V1713.58ZM331.494 1694.89C331.494 1685.91 334.144 1679.43 337.676 1675.02C341.208 1670.6 345.623 1667.81 349.302 1665.89C352.982 1663.98 355.778 1662.65 356.367 1661.04V1652.21C356.367 1650.88 356.367 1648.82 355.925 1647.35C355.336 1645.88 354.159 1644.85 352.246 1644.85C349.744 1644.85 348.714 1646.76 348.272 1649.11C348.125 1650.29 347.978 1651.62 347.978 1652.94V1656.77H333.113V1653.38C333.113 1647.5 335.321 1642.2 338.853 1638.22C342.385 1634.25 347.389 1631.9 353.129 1631.9C357.986 1631.9 362.401 1633.81 365.786 1637.05C369.171 1640.28 371.231 1644.85 371.231 1650.15V1699.6C371.231 1706.81 371.673 1710.04 372.261 1713.58H357.691C356.367 1711.96 356.367 1708.13 356.367 1707.1H355.336C354.601 1708.43 353.276 1710.34 351.216 1711.96C349.155 1713.58 346.359 1714.75 343.415 1714.75C341.502 1714.75 338.412 1714.02 336.057 1711.07C333.555 1708.28 331.494 1703.27 331.494 1694.89ZM346.065 1692.68C346.065 1693.71 346.212 1695.47 346.8 1697.09C347.389 1698.86 348.419 1700.18 350.185 1700.18C353.57 1700.18 356.367 1698.12 356.367 1695.33V1674.72C349.155 1677.81 346.065 1685.02 346.065 1692.68ZM380.563 1613.2H395.427V1633.07H405.582V1646.47H395.427V1686.5C395.427 1689 395.427 1692.24 396.016 1694.89C396.605 1697.53 397.782 1699.74 400.137 1699.74C401.314 1699.74 402.786 1699.6 403.816 1699.45C404.405 1699.3 404.993 1699.3 405.582 1699.15V1713.72C404.846 1713.87 404.11 1714.17 403.375 1714.31C401.903 1714.61 399.99 1714.75 397.635 1714.75C388.952 1714.75 384.831 1710.34 382.77 1704.75C380.71 1699.15 380.563 1692.38 380.563 1687.67V1646.47H373.057V1633.07H380.563V1613.2ZM434.004 1684.73H447.838V1694C447.396 1701.8 445.042 1707.25 439.743 1711.52C437.094 1713.72 433.415 1714.75 428.558 1714.75C418.992 1714.75 414.135 1709.46 411.781 1704.16C410.456 1701.07 409.573 1697.53 409.426 1693.56V1653.09C409.867 1645.29 412.369 1639.55 417.668 1635.13C420.169 1632.93 423.849 1631.9 428.705 1631.9C438.272 1631.9 443.128 1637.19 445.483 1642.34C446.808 1645.44 447.691 1648.82 447.838 1652.65V1676.05H423.26V1693.56C423.407 1696.65 424.29 1698.86 425.615 1700.48C426.351 1701.21 427.381 1701.66 428.705 1701.66C431.502 1701.66 432.826 1699.89 433.415 1697.68C433.856 1696.5 434.004 1695.18 434.004 1693.56V1684.73ZM423.26 1653.09V1664.42H434.004V1653.09C434.004 1650 433.415 1647.79 431.943 1646.02C431.207 1645.29 430.03 1644.85 428.705 1644.85C425.909 1644.85 424.732 1646.76 423.996 1648.97C423.554 1650.15 423.407 1651.47 423.26 1653.09ZM492.617 1605.4V1713.58H477.753V1708.28C475.251 1710.63 473.044 1712.4 470.247 1713.72C468.775 1714.46 467.304 1714.75 465.979 1714.75C461.858 1714.75 459.062 1712.4 457.296 1709.31C455.383 1706.36 454.5 1702.39 454.5 1699.01V1647.64C454.5 1644.26 455.383 1640.28 457.296 1637.19C459.062 1634.25 461.858 1631.9 465.979 1631.9C468.775 1631.9 471.719 1633.51 473.927 1635.13C475.251 1636.16 476.428 1637.19 477.753 1638.37V1605.4H492.617ZM477.753 1695.92V1650.73C477.753 1648.38 475.545 1645.88 473.338 1645.88C471.13 1645.88 469.364 1647.94 469.364 1650.73V1695.92C469.364 1698.71 471.13 1700.77 473.338 1700.77C475.545 1700.77 477.753 1698.71 477.753 1695.92ZM521.207 1713.58V1605.4H536.071V1638.37C538.573 1636.02 540.781 1634.25 543.724 1632.93C545.049 1632.19 546.521 1631.9 547.845 1631.9C551.966 1631.9 554.762 1634.25 556.676 1637.19C558.442 1640.28 559.325 1644.26 559.325 1647.64V1699.01C559.325 1702.39 558.442 1706.36 556.676 1709.31C554.762 1712.4 551.966 1714.75 547.845 1714.75C545.049 1714.75 542.105 1713.13 539.898 1711.52C538.573 1710.49 537.396 1709.46 536.071 1708.28V1713.58H521.207ZM536.071 1650.73V1695.92C536.071 1698.71 538.279 1700.77 540.487 1700.77C542.694 1700.77 544.46 1698.71 544.46 1695.92V1650.73C544.46 1647.94 542.694 1645.88 540.487 1645.88C538.279 1645.88 536.071 1648.38 536.071 1650.73ZM564.028 1742.13V1728.88C564.176 1729.03 564.47 1729.03 564.911 1729.03C565.647 1729.18 569.327 1729.47 571.681 1727.7C574.036 1725.94 575.655 1723.44 576.538 1720.35C576.98 1718.87 577.127 1717.4 577.127 1715.93L563.44 1633.07H578.01L583.897 1682.52L584.191 1686.64H584.78L585.074 1682.52L590.961 1633.07H605.531L591.255 1719.61C590.519 1725.35 588.312 1730.94 584.78 1735.21C581.248 1739.48 576.538 1742.42 570.651 1742.42H568.885C567.561 1742.42 565.794 1742.28 564.028 1742.13ZM671.298 1644.26H655.403V1627.63C655.403 1624.68 654.814 1622.62 653.343 1620.86C652.607 1620.12 651.429 1619.68 650.105 1619.68C647.309 1619.68 645.984 1621.74 645.395 1623.65C644.954 1624.83 644.807 1626.16 644.807 1627.63V1692.68C644.807 1695.77 645.543 1697.83 647.014 1699.45C647.75 1700.18 648.78 1700.63 650.105 1700.63C652.901 1700.63 654.226 1698.86 654.814 1696.65C655.256 1695.62 655.403 1694.3 655.403 1692.68V1673.1H649.075V1659.71H671.298V1713.58H661.879L659.965 1708.43C657.022 1712.1 652.754 1714.75 647.603 1714.75C642.452 1714.75 638.92 1713.43 636.271 1711.07C633.622 1708.87 631.855 1706.07 630.678 1703.13C629.354 1699.74 628.765 1695.77 628.912 1691.35V1627.63C629.059 1623.36 629.942 1619.39 631.561 1616C632.886 1613.06 634.799 1610.11 637.742 1607.91C640.686 1605.7 644.807 1604.23 650.105 1604.23C655.403 1604.23 659.377 1605.7 662.32 1607.91C665.264 1610.11 667.324 1613.06 668.649 1616C670.268 1619.39 671.151 1623.36 671.298 1627.63V1644.26ZM703.433 1684.73H717.267V1694C716.826 1701.8 714.471 1707.25 709.173 1711.52C706.524 1713.72 702.844 1714.75 697.988 1714.75C688.421 1714.75 683.565 1709.46 681.21 1704.16C679.885 1701.07 679.002 1697.53 678.855 1693.56V1653.09C679.297 1645.29 681.799 1639.55 687.097 1635.13C689.599 1632.93 693.278 1631.9 698.135 1631.9C707.701 1631.9 712.558 1637.19 714.913 1642.34C716.237 1645.44 717.12 1648.82 717.267 1652.65V1676.05H692.689V1693.56C692.837 1696.65 693.72 1698.86 695.044 1700.48C695.78 1701.21 696.81 1701.66 698.135 1701.66C700.931 1701.66 702.256 1699.89 702.844 1697.68C703.286 1696.5 703.433 1695.18 703.433 1693.56V1684.73ZM692.689 1653.09V1664.42H703.433V1653.09C703.433 1650 702.844 1647.79 701.373 1646.02C700.637 1645.29 699.459 1644.85 698.135 1644.85C695.339 1644.85 694.161 1646.76 693.425 1648.97C692.984 1650.15 692.837 1651.47 692.689 1653.09ZM761.311 1652.65V1694C760.869 1701.8 758.515 1707.25 753.364 1711.52C750.715 1713.72 747.035 1714.75 742.179 1714.75C732.612 1714.75 727.903 1709.46 725.548 1704.16C724.223 1701.07 723.34 1697.53 723.193 1693.56V1653.09C723.635 1645.29 725.99 1639.55 731.141 1635.13C733.643 1632.93 737.322 1631.9 742.179 1631.9C751.745 1631.9 756.601 1637.19 758.956 1642.34C760.281 1645.44 761.164 1648.82 761.311 1652.65ZM747.33 1693.56V1653.09C747.477 1650 746.888 1647.79 745.416 1646.02C744.68 1645.29 743.503 1644.85 742.179 1644.85C739.382 1644.85 738.205 1646.76 737.616 1648.97C737.175 1650.15 737.027 1651.47 737.175 1653.09V1693.56C737.027 1696.65 737.763 1698.86 739.088 1700.48C739.824 1701.21 740.854 1701.66 742.179 1701.66C744.975 1701.66 746.299 1699.89 746.888 1697.68C747.33 1696.5 747.477 1695.18 747.33 1693.56ZM798.301 1631.9V1648.38C796.976 1647.94 795.504 1647.79 794.18 1647.79C791.825 1647.79 789.029 1648.08 786.674 1650.29C783.878 1652.65 783.436 1655.15 783.436 1657.65V1713.58H768.572V1633.07H783.436V1642.05C783.584 1641.02 784.614 1638.52 786.968 1636.16C789.323 1633.96 792.855 1631.9 798.301 1631.9ZM838.198 1651.91V1674.72C837.757 1682.23 835.108 1687.53 829.957 1691.5C827.308 1693.56 823.628 1694.59 819.066 1694.59H817.741C817.3 1694.59 816.711 1694.59 816.27 1694.44C814.945 1695.62 814.209 1696.8 814.209 1698.12C814.209 1699.89 815.681 1700.92 817.888 1701.51C820.096 1702.24 822.745 1702.69 825.541 1703.13C830.251 1703.72 835.255 1704.89 839.376 1707.69C843.349 1710.49 846.146 1714.75 846.146 1721.82C846.146 1729.62 842.761 1734.92 838.051 1738.01C833.194 1741.1 826.719 1742.42 820.685 1742.42C813.62 1742.28 807.586 1741.24 803.466 1738.89C799.198 1736.54 796.843 1732.71 796.843 1726.82C796.843 1724.03 798.315 1721.67 800.522 1719.61C802.73 1717.55 805.673 1715.93 808.469 1714.61C803.613 1713.28 799.492 1710.19 799.492 1703.86C799.492 1701.51 800.816 1699.15 802.583 1696.95C804.349 1694.74 806.556 1692.97 808.764 1691.79C804.496 1689 802.435 1684.58 801.405 1680.9C800.816 1678.7 800.375 1676.49 800.228 1674.28V1652.35C800.816 1644.85 803.171 1639.4 808.322 1635.13C810.824 1632.93 814.504 1631.9 819.066 1631.9C826.572 1631.9 831.134 1635.28 833.93 1639.25C834.961 1638.22 836.727 1636.46 839.081 1634.84C841.289 1633.22 843.791 1631.9 846.146 1631.9V1645.14C842.172 1645.14 839.229 1645.88 837.462 1646.91C837.61 1647.64 837.757 1648.38 837.904 1648.82C837.904 1649.41 837.904 1650 838.051 1650.44C838.198 1650.88 838.198 1651.47 838.198 1651.91ZM823.628 1675.02V1652.94C823.628 1650.15 823.04 1648.38 821.862 1646.76C821.273 1646.02 820.39 1645.58 819.066 1645.58C816.711 1645.58 815.534 1647.5 815.092 1649.26C814.798 1650.29 814.651 1651.62 814.798 1652.94V1675.02C814.651 1677.81 815.092 1679.58 816.417 1681.05C817.005 1681.79 817.888 1682.23 819.066 1682.23C821.568 1682.23 822.598 1680.46 823.187 1678.7C823.481 1677.67 823.628 1676.34 823.628 1675.02ZM832.311 1724.47C832.311 1723.14 832.164 1722.11 831.134 1721.08C829.957 1720.05 828.043 1719.32 824.364 1718.73L816.711 1717.26C813.62 1719.02 811.266 1721.23 811.266 1724.32C811.266 1727.41 814.062 1729.91 820.979 1729.91C823.481 1729.91 826.277 1729.47 828.485 1728.59C830.693 1727.7 832.311 1726.38 832.311 1724.47ZM871.888 1684.73H885.722V1694C885.281 1701.8 882.926 1707.25 877.628 1711.52C874.979 1713.72 871.3 1714.75 866.443 1714.75C856.877 1714.75 852.02 1709.46 849.665 1704.16C848.341 1701.07 847.458 1697.53 847.31 1693.56V1653.09C847.752 1645.29 850.254 1639.55 855.552 1635.13C858.054 1632.93 861.733 1631.9 866.59 1631.9C876.156 1631.9 881.013 1637.19 883.368 1642.34C884.692 1645.44 885.575 1648.82 885.722 1652.65V1676.05H861.145V1693.56C861.292 1696.65 862.175 1698.86 863.499 1700.48C864.235 1701.21 865.265 1701.66 866.59 1701.66C869.386 1701.66 870.711 1699.89 871.3 1697.68C871.741 1696.5 871.888 1695.18 871.888 1693.56V1684.73ZM861.145 1653.09V1664.42H871.888V1653.09C871.888 1650 871.3 1647.79 869.828 1646.02C869.092 1645.29 867.915 1644.85 866.59 1644.85C863.794 1644.85 862.616 1646.76 861.881 1648.97C861.439 1650.15 861.292 1651.47 861.145 1653.09ZM912.738 1713.58V1605.4H928.632V1698.86H949.678V1713.58H912.738ZM989.992 1652.65V1694C989.55 1701.8 987.196 1707.25 982.045 1711.52C979.396 1713.72 975.716 1714.75 970.86 1714.75C961.293 1714.75 956.584 1709.46 954.229 1704.16C952.904 1701.07 952.021 1697.53 951.874 1693.56V1653.09C952.316 1645.29 954.671 1639.55 959.822 1635.13C962.323 1632.93 966.003 1631.9 970.86 1631.9C980.426 1631.9 985.282 1637.19 987.637 1642.34C988.962 1645.44 989.845 1648.82 989.992 1652.65ZM976.011 1693.56V1653.09C976.158 1650 975.569 1647.79 974.097 1646.02C973.361 1645.29 972.184 1644.85 970.86 1644.85C968.063 1644.85 966.886 1646.76 966.297 1648.97C965.856 1650.15 965.708 1651.47 965.856 1653.09V1693.56C965.708 1696.65 966.444 1698.86 967.769 1700.48C968.505 1701.21 969.535 1701.66 970.86 1701.66C973.656 1701.66 974.98 1699.89 975.569 1697.68C976.011 1696.5 976.158 1695.18 976.011 1693.56ZM1016.97 1646.32C1015.36 1646.32 1014.47 1647.2 1013.44 1648.23C1013 1648.82 1012.56 1649.41 1012.12 1650.15V1713.58H997.253V1633.07H1012.12V1639.84C1012.41 1639.7 1013 1639.11 1013.88 1638.22C1015.5 1636.61 1017.71 1634.4 1020.36 1632.93C1021.68 1632.19 1022.86 1631.9 1024.19 1631.9C1028.16 1631.9 1030.96 1634.25 1032.72 1637.19C1034.49 1640.28 1035.37 1644.26 1035.37 1647.64V1713.58H1020.51V1649.85C1020.51 1646.76 1018.74 1646.32 1016.97 1646.32ZM1080.25 1651.91V1674.72C1079.8 1682.23 1077.15 1687.53 1072 1691.5C1069.35 1693.56 1065.68 1694.59 1061.11 1694.59H1059.79C1059.35 1694.59 1058.76 1694.59 1058.32 1694.44C1056.99 1695.62 1056.26 1696.8 1056.26 1698.12C1056.26 1699.89 1057.73 1700.92 1059.94 1701.51C1062.14 1702.24 1064.79 1702.69 1067.59 1703.13C1072.3 1703.72 1077.3 1704.89 1081.42 1707.69C1085.4 1710.49 1088.19 1714.75 1088.19 1721.82C1088.19 1729.62 1084.81 1734.92 1080.1 1738.01C1075.24 1741.1 1068.77 1742.42 1062.73 1742.42C1055.67 1742.28 1049.63 1741.24 1045.51 1738.89C1041.24 1736.54 1038.89 1732.71 1038.89 1726.82C1038.89 1724.03 1040.36 1721.67 1042.57 1719.61C1044.78 1717.55 1047.72 1715.93 1050.52 1714.61C1045.66 1713.28 1041.54 1710.19 1041.54 1703.86C1041.54 1701.51 1042.86 1699.15 1044.63 1696.95C1046.4 1694.74 1048.6 1692.97 1050.81 1691.79C1046.54 1689 1044.48 1684.58 1043.45 1680.9C1042.86 1678.7 1042.42 1676.49 1042.28 1674.28V1652.35C1042.86 1644.85 1045.22 1639.4 1050.37 1635.13C1052.87 1632.93 1056.55 1631.9 1061.11 1631.9C1068.62 1631.9 1073.18 1635.28 1075.98 1639.25C1077.01 1638.22 1078.77 1636.46 1081.13 1634.84C1083.34 1633.22 1085.84 1631.9 1088.19 1631.9V1645.14C1084.22 1645.14 1081.28 1645.88 1079.51 1646.91C1079.66 1647.64 1079.8 1648.38 1079.95 1648.82C1079.95 1649.41 1079.95 1650 1080.1 1650.44C1080.25 1650.88 1080.25 1651.47 1080.25 1651.91ZM1065.68 1675.02V1652.94C1065.68 1650.15 1065.09 1648.38 1063.91 1646.76C1063.32 1646.02 1062.44 1645.58 1061.11 1645.58C1058.76 1645.58 1057.58 1647.5 1057.14 1649.26C1056.85 1650.29 1056.7 1651.62 1056.85 1652.94V1675.02C1056.7 1677.81 1057.14 1679.58 1058.46 1681.05C1059.05 1681.79 1059.94 1682.23 1061.11 1682.23C1063.62 1682.23 1064.65 1680.46 1065.23 1678.7C1065.53 1677.67 1065.68 1676.34 1065.68 1675.02ZM1074.36 1724.47C1074.36 1723.14 1074.21 1722.11 1073.18 1721.08C1072 1720.05 1070.09 1719.32 1066.41 1718.73L1058.76 1717.26C1055.67 1719.02 1053.31 1721.23 1053.31 1724.32C1053.31 1727.41 1056.11 1729.91 1063.03 1729.91C1065.53 1729.91 1068.32 1729.47 1070.53 1728.59C1072.74 1727.7 1074.36 1726.38 1074.36 1724.47Z" fill="black"/>
</svg>
