<svg width="151" height="122" viewBox="0 0 151 122" fill="none" xmlns="http://www.w3.org/2000/svg">
<path d="M98.9529 91.7731C89.463 91.7731 80.9923 96.2123 75.4887 103.12C69.985 96.2123 61.5143 91.7731 52.0244 91.7731H0V104.887H52.0244C61.3558 104.887 68.9431 112.474 68.9431 121.783H82.0568C82.0568 112.452 89.6442 104.887 98.9755 104.887H151V91.7731H98.9529Z" fill="black"/>
<path d="M115.713 38.5942L119.065 46.6798L133.696 40.6326L130.344 32.5469L115.781 38.5715L115.713 38.5942Z" fill="#FF7626"/>
<path d="M56.1144 1.80736L48.0381 5.15485L54.1 19.78L62.1763 16.4326L56.1144 1.80736Z" fill="#FF7626"/>
<path d="M31.9122 46.6798L35.2643 38.5942L20.6331 32.5469L17.3037 40.6326L31.8443 46.6345L31.9122 46.6798Z" fill="#FF7626"/>
<path d="M94.8689 1.78625L88.8086 16.4114L96.8849 19.7581L102.945 5.13286L94.8689 1.78625Z" fill="#FF7626"/>
<path d="M111.749 49.7143L108.397 41.6286L94.106 47.54L121.489 20.1575L115.305 13.9744L87.9455 41.3568L93.8569 27.088L85.7712 23.736L79.8599 38.0274V0H71.1174V38.0501L65.2061 23.7587L57.1204 27.1107L63.0318 41.3795L35.6719 13.997L29.4888 20.1801L56.8713 47.5626L42.5798 41.6513L39.2278 49.7369L53.4966 55.6483H17.3037V64.3907H58.6379C65.2061 64.3907 70.5512 69.7359 70.5512 76.304V84.2764H71.1174H71.6383H79.2937H79.8599H80.3808V76.304C80.3808 69.7359 85.7259 64.3907 92.2941 64.3907H133.651V55.6483H97.4807L111.749 49.7143Z" fill="#FF7626"/>
</svg>
