<svg width="152" height="124" viewBox="0 0 152 124" fill="none" xmlns="http://www.w3.org/2000/svg">
<path d="M99.571 92.9622C89.8783 92.9622 81.5072 97.368 75.7797 104.417C70.0522 97.368 61.6812 92.9622 51.9884 92.9622H0V106.18H51.9884C61.6812 106.18 69.171 113.669 69.171 123.362H82.3884C82.3884 113.669 89.8783 106.18 99.571 106.18H152V92.9622H99.571Z" fill="black"/>
<path d="M75.7794 86.3536C99.5707 86.3536 118.956 66.9681 118.956 43.1768C118.956 19.3855 99.5707 0 75.7794 0C51.9881 0 32.6025 19.3855 32.6025 43.1768C32.6025 66.9681 51.9881 86.3536 75.7794 86.3536ZM111.907 40.0928H98.2489C97.8083 35.2464 96.9272 30.4 95.6054 26.4348H107.942C110.145 30.4 111.466 34.8058 111.907 40.0928ZM72.2547 66.5275V75.3391C70.0518 73.1362 67.8489 70.0522 65.646 66.5275H72.2547ZM63.0025 59.9188C61.6808 55.9536 60.3591 51.5478 59.9185 46.7015H72.6953V59.9188H63.0025ZM79.304 66.5275H85.9127C83.7098 70.0522 81.5069 73.1362 79.304 75.3391V66.5275ZM79.304 59.9188V46.7015H91.6402C91.1996 51.5478 90.3185 55.9536 88.5562 59.9188H79.304ZM98.2489 46.7015H111.907C111.466 51.5478 110.145 55.9536 107.942 59.9188H95.6054C96.9272 55.513 97.8083 51.1072 98.2489 46.7015ZM91.6402 40.0928H78.8634V26.4348H88.5562C90.3185 30.4 91.1996 34.8058 91.6402 40.0928ZM79.304 19.8261V11.4551C81.0663 13.658 83.2692 16.3014 85.4721 19.8261H79.304ZM72.2547 19.8261H66.0866C68.2895 16.3014 70.4924 13.658 72.2547 11.4551V19.8261ZM72.2547 26.4348V40.0928H59.4779C59.9185 34.8058 60.7996 30.4 62.562 26.4348H72.2547ZM53.3098 40.0928H39.6518C40.0924 35.2464 41.4141 30.4 43.617 26.4348H55.9533C54.6315 30.4 53.3098 34.8058 53.3098 40.0928ZM53.3098 46.7015C53.7504 51.5478 54.6315 55.9536 55.9533 59.9188H43.617C41.4141 55.9536 40.0924 51.5478 39.6518 46.7015H53.3098ZM47.5822 66.5275H58.5967C60.7996 71.3739 63.8837 75.3391 66.5272 78.4232C59.0373 76.2203 52.4286 71.8145 47.5822 66.5275ZM85.4721 78.4232C88.1156 75.3391 90.7591 71.3739 93.4025 66.5275H104.417C99.1301 71.8145 92.5214 76.2203 85.4721 78.4232ZM103.536 19.8261H92.962C90.7591 14.9797 87.675 11.4551 85.0315 8.37101C92.5214 10.1333 98.6895 14.0986 103.536 19.8261ZM66.5272 7.93043C63.8837 11.0145 61.2402 14.9797 58.5967 19.3855H48.0228C52.8692 14.0986 59.0373 10.1333 66.5272 7.93043Z" fill="#0058FF"/>
</svg>
