<?xml version="1.0" encoding="utf-8"?>
<!-- Generator: Adobe Illustrator 28.0.0, SVG Export Plug-In . SVG Version: 6.00 Build 0)  -->
<svg version="1.1" xmlns="http://www.w3.org/2000/svg" xmlns:xlink="http://www.w3.org/1999/xlink" x="0px" y="0px"
	 viewBox="0 0 1959 350.1" style="enable-background:new 0 0 1959 350.1;" xml:space="preserve">
<style type="text/css">
	.st0{display:none;}
</style>
<g id="Guides" class="st0">
</g>
<g id="Logo">
	<g>
		<g>
			<path d="M473.6,197.4c0,15.8-8.6,22.4-19.8,22.4c-10.7,0-16.6-6.2-16.6-18.2v-50.5h-16.6v51.8c0,20.1,11.2,31,27,31
				c12.5,0,20.6-7,26.2-15.9v14.3h16.4v-81.2h-16.6V197.4z"/>
			<path d="M369.8,121.8h-40v110.5h16.6V191h23.4c22.7,0,38.3-13.2,38.3-34.6C408.1,134.8,392.5,121.8,369.8,121.8z M391.1,157.3
				c0,11.2-7.5,18.8-22.1,18.8h-22.6v-39.5H369c14.6,0,22.1,7.6,22.1,19V157.3z"/>
			<path d="M820.2,121.8h-35.1v110.5h35.1c31.4,0,55.6-19.7,55.6-55.2C875.8,141.5,851.6,121.8,820.2,121.8z M858.7,179.8
				c0,22.4-15.4,37.4-39.8,37.4h-17.2V137h17.2c24.4,0,39.8,14.9,39.8,37.4V179.8z"/>
			<path d="M707,163.3c10.6,0,17.9,6,19.3,16.2h16.9c-1.8-14.9-13.8-30.1-36.2-30.1c-22.9,0-39.6,15.8-39.6,42.2
				c0,26.5,16.7,42.2,39.6,42.2c22.4,0,34.4-15.1,36.2-30.2h-16.9c-1.5,10.4-8.8,16.4-19.3,16.4c-13.3,0-22.6-8.9-22.6-26.2v-4.6
				C684.5,172.2,693.7,163.3,707,163.3z"/>
			<polygon points="616.4,116.2 599.8,116.2 599.8,232.3 624,232.3 624,218.3 616.4,218.3 			"/>
			<path d="M550.9,149.5c-12,0-20.8,5.7-26.6,15.8v-49.1h-16.6v116.2H524v-14.8c5.8,10.6,14.8,16.4,27,16.4
				c19.7,0,34.6-14.9,34.6-42.2C585.5,164.4,570.6,149.5,550.9,149.5z M568.6,193.8c0,17.5-8.8,26.8-22.4,26.8
				c-14,0-21.9-9.9-21.9-25.2v-7.6c0-14.9,8-24.7,21.9-24.7c13.6,0,22.4,9.1,22.4,26.3V193.8z"/>
			<path d="M925.3,149.5c-23.2,0-39.5,16.6-39.5,42.2c0,25.7,16.2,42.2,39.5,42.2c23.2,0,39.5-16.6,39.5-42.2
				C964.8,166,948.6,149.5,925.3,149.5z M947.9,194c0,17.2-9.6,26.2-22.6,26.2c-13,0-22.4-8.9-22.4-26.2v-4.6
				c0-17.2,9.4-26.2,22.4-26.2c13,0,22.6,8.9,22.6,26.2V194z"/>
			<rect x="635.9" y="119.2" width="17.7" height="17.5"/>
			<rect x="636.5" y="151.1" width="16.6" height="81.2"/>
			<rect x="1200" y="119.2" width="17.7" height="17.5"/>
			<path d="M1569.9,165.1v-14h-16.2v81.2h16.6v-49.1c0-11.7,5-16.6,15.6-16.6h10.2v-16.4h-3.3
				C1582.9,150.3,1574.9,153.8,1569.9,165.1z"/>
			<path d="M1639.6,149.5c-19.2,0-33.6,10.1-34.8,29.4h16.7c0.3-10.9,6.3-16.1,17.4-16.1c9.9,0,16.2,4.4,16.2,16.6v1.8l-26.8,6.7
				c-12.7,3.2-23.9,10.7-23.9,24.5c0,12.2,8.9,21.6,25,21.6c12.2,0,20.1-5.5,25.8-15.3v13.6h16.4v-51.2
				C1671.7,161.6,1660.4,149.5,1639.6,149.5z M1655.2,201.3c0,12.8-8.8,20.3-20.5,20.3c-8.1,0-13.6-3.6-13.6-11.2
				c0-6.5,4.2-10.4,12.8-12.5l21.3-5V201.3z"/>
			<path d="M1074.1,149.5c-13.5,0-22.4,8.1-27.6,18.2c-3.7-11.9-13.2-18.2-25.2-18.2c-12.7,0-20.6,7-26,16.2v-14.6h-16.2v81.2h16.6
				V186c0-15.8,8.3-22.4,19.5-22.4c10.7,0,16.7,6.3,16.7,18.4v50.4h16.6V186c0-15.8,8.3-22.4,19.5-22.4c10.7,0,16.7,6.3,16.7,18.4
				v50.4h16.6v-51.7C1101.3,160.5,1089.9,149.5,1074.1,149.5z"/>
			<path d="M1504.7,149.5c-12,0-20.8,5.7-26.6,15.8v-49.1h-16.6v116.2h16.2v-14.8c5.8,10.6,14.8,16.4,27,16.4
				c19.7,0,34.6-14.9,34.6-42.2C1539.3,164.4,1524.4,149.5,1504.7,149.5z M1522.4,193.8c0,17.5-8.8,26.8-22.4,26.8
				c-14,0-21.9-9.9-21.9-25.2v-7.6c0-14.9,8-24.7,21.9-24.7c13.6,0,22.4,9.1,22.4,26.3V193.8z"/>
			<path d="M1705,165.1v-14h-16.2v81.2h16.6v-49.1c0-11.7,5-16.6,15.6-16.6h10.2v-16.4h-3.2C1718,150.3,1710.1,153.8,1705,165.1z"/>
			<polygon points="1798,151.1 1781.9,203.1 1776.2,222.2 1775.9,222.2 1770.2,203.2 1753.6,151.1 1736.2,151.1 1762.4,230.7 
				1773.1,230.7 1762.5,264.8 1779.1,264.8 1815,151.1 			"/>
			<rect x="1426.8" y="119.2" width="17.7" height="17.5"/>
			<path d="M1151.5,149.5c-19.2,0-33.6,10.1-34.8,29.4h16.7c0.3-10.9,6.3-16.1,17.4-16.1c9.9,0,16.2,4.4,16.2,16.6v1.8l-26.8,6.7
				c-12.7,3.2-23.9,10.7-23.9,24.5c0,12.2,8.9,21.6,25,21.6c12.2,0,20.1-5.5,25.8-15.3v13.6h16.4v-51.2
				C1183.6,161.6,1172.3,149.5,1151.5,149.5z M1167.1,201.3c0,12.8-8.8,20.3-20.5,20.3c-8.1,0-13.6-3.6-13.6-11.2
				c0-6.5,4.2-10.4,12.8-12.5l21.3-5V201.3z"/>
			<rect x="1427.4" y="151.1" width="16.6" height="81.2"/>
			<rect x="1200.7" y="151.1" width="16.6" height="81.2"/>
			<polygon points="1363.2,121.8 1346.7,121.8 1346.7,232.3 1415.1,232.3 1415.1,217.2 1363.2,217.2 			"/>
			<path d="M1277,149.5c-12.7,0-20.6,7-26,16.2v-14.6h-16.2v81.2h16.6V186c0-15.8,8.3-22.4,19.5-22.4c10.9,0,17.4,6.3,17.4,18.4
				v50.4h16.6v-51.7C1304.8,160.5,1293,149.5,1277,149.5z"/>
		</g>
		<g>
			<path d="M238.4,203.7c-9.1,0-17.1,4.2-22.4,10.8c-5.2-6.6-13.3-10.8-22.4-10.8H144v12.5h49.6c8.9,0,16.1,7.2,16.1,16.1h12.5
				c0-8.9,7.2-16.1,16.1-16.1H288v-12.5H238.4z"/>
			<g>
				<path d="M250.8,164l-3.6-8.7l-22.5,9.3l9.3-22.5l-8.7-3.6l-9.3,22.5l-9.3-22.5l-8.7,3.6l9.3,22.5l-22.5-9.3l-3.6,8.7l22.5,9.3
					l-26.8,11.1l3.6,8.7l25.2-10.5c1.2-0.5,2.6-0.4,3.7,0.4c1.1,0.8,1.8,2,1.8,3.3c0,0,0,0,0,0v10.1h0h9.4h0v-10.1
					c0-1.4,0.7-2.6,1.8-3.3c1.1-0.7,2.5-0.9,3.8-0.4l0,0l25.2,10.5l3.6-8.7l-26.8-11.1L250.8,164z"/>
				<polygon points="268.1,146.7 254.2,152.5 254.1,152.5 257.7,161.2 271.7,155.4 				"/>
				<rect x="191.9" y="118.9" transform="matrix(0.9238 -0.3829 0.3829 0.9238 -33.4362 84.8797)" width="9.4" height="15.1"/>
				<rect x="164.4" y="146.4" transform="matrix(0.3829 -0.9238 0.9238 0.3829 -37.8817 251.1641)" width="9.4" height="15.1"/>
				<polygon points="242.6,121.3 234,117.7 228.2,131.6 228.2,131.6 236.9,135.2 				"/>
			</g>
		</g>
	</g>
</g>
</svg>
