<?xml version="1.0" encoding="utf-8"?>
<svg version="1.1" 
xmlns="http://www.w3.org/2000/svg" 
xmlns:xlink="http://www.w3.org/1999/xlink" 
viewBox="0 0 1386 1299" 
fill="none" 
x="0px" y="0px" 
xml:space="preserve">
<style type="text/css">
	.st1{fill:#000000;}
</style>
<path class="st1" d="M1270.27 150.04C1270.27 168.34 1276.22 182.06 1284.45 194.41C1292.68 206.76 1303.21 216.37 1314.18 226.89C1328.36 241.07 1343 256.17 1343 271.26C1343 286.35 1340.26 301.45 1326.99 301.45C1317.38 301.45 1312.35 295.05 1309.15 287.27C1305.95 279.95 1305.49 270.34 1305.49 263.48H1262.49C1262.49 276.75 1264.32 295.96 1273.47 311.51C1282.62 327.06 1299.09 339.87 1326.99 339.87C1348.95 339.87 1363.59 330.26 1373.19 317C1382.34 304.19 1386 287.27 1386 271.26C1386 255.25 1380.05 240.61 1372.28 227.8C1364.5 215.45 1353.07 204.47 1343.46 194.86C1336.14 188 1328.82 180.68 1323.33 173.36C1317.38 166.04 1313.27 157.81 1313.27 150.03C1313.27 144.08 1313.73 136.31 1316.01 130.82C1317.84 125.33 1321.5 120.76 1327.45 120.76C1334.77 120.76 1338.43 125.33 1340.72 130.82C1342.55 136.77 1342.55 144.09 1342.55 150.03H1385.55C1385.55 135.85 1384.18 118.47 1376.4 105.2C1368.62 91.93 1353.53 81.87 1326.54 82.33C1304.58 82.79 1290.4 92.39 1281.71 105.2C1273.02 118.47 1270.27 135.39 1270.27 150.03M1191.13 127.17C1196.62 127.17 1202.11 128.54 1202.11 138.15V336.23H1248.31V131.29C1248.31 120.77 1245.57 108.42 1240.08 98.81C1234.59 89.66 1225.9 82.34 1213.55 82.34C1209.43 82.34 1205.77 83.26 1201.66 85.54C1193.43 90.11 1186.56 96.98 1181.53 102.01C1178.79 104.76 1176.95 106.59 1176.04 107.04V86H1129.84V336.22H1176.04V139.06C1177.41 136.77 1178.78 134.94 1180.16 133.11C1183.36 129.91 1186.11 127.16 1191.14 127.16M1063.96 274.01C1064.42 279.04 1063.96 283.16 1062.59 286.82C1060.76 293.68 1056.64 299.17 1047.95 299.17C1043.83 299.17 1040.63 297.8 1038.34 295.51C1034.22 290.48 1031.94 283.62 1032.39 274.01V148.21C1031.93 143.18 1032.39 139.06 1033.76 135.4C1035.59 128.54 1039.25 122.59 1047.94 122.59C1052.06 122.59 1055.72 123.96 1058 126.25C1062.58 131.74 1064.41 138.6 1063.95 148.21V274.01H1063.96ZM1107.41 146.84C1106.95 134.95 1104.21 124.42 1100.09 114.82C1092.77 98.81 1077.67 82.34 1047.94 82.34C1032.84 82.34 1021.41 85.54 1013.63 92.4C997.62 106.12 990.3 123.96 988.93 148.21V274.01C989.39 286.36 992.13 297.34 996.25 306.95C1003.57 323.42 1018.21 339.89 1047.94 339.89C1063.04 339.89 1074.47 336.69 1082.71 329.83C1098.72 316.56 1106.04 299.64 1107.41 275.39V146.85V146.84ZM966.52 86H920.32V336.22H966.52V86ZM920.32 46.2H966.52V0H920.32V46.2ZM827 24.25V86.01H803.67V127.64H827V255.73C827 270.37 827.46 291.41 833.86 308.79C840.26 326.17 853.07 339.9 880.06 339.9C887.38 339.9 893.33 339.44 897.9 338.53C900.19 338.07 902.48 337.16 904.76 336.7V291.41C902.93 291.87 901.1 291.87 899.27 292.33C896.07 292.79 891.49 293.24 887.83 293.24C880.51 293.24 876.85 286.38 875.02 278.14C873.19 269.91 873.19 259.84 873.19 252.07V127.64H904.75V86.01H873.19V24.25H826.99H827ZM719.95 271.27C719.95 247.48 729.56 225.07 751.97 215.46V279.5C751.97 288.19 743.28 294.6 732.76 294.6C727.27 294.6 724.07 290.48 722.24 284.99C720.41 279.96 719.95 274.47 719.95 271.27ZM674.66 278.13C674.66 304.2 681.06 319.76 688.84 328.45C696.16 337.6 705.77 339.89 711.71 339.89C720.86 339.89 729.55 336.23 735.95 331.2C742.36 326.17 746.47 320.22 748.76 316.1H751.96C751.96 319.3 751.96 331.2 756.08 336.23H801.37C799.54 325.25 798.17 315.19 798.17 292.77V139.07C798.17 122.6 791.76 108.42 781.24 98.36C770.72 88.3 757 82.35 741.9 82.35C724.06 82.35 708.51 89.67 697.53 102.02C686.55 114.37 679.69 130.84 679.69 149.14V159.66H725.89V147.77C725.89 143.65 726.35 139.54 726.8 135.88C728.17 128.56 731.38 122.61 739.15 122.61C745.1 122.61 748.76 125.81 750.59 130.39C751.96 134.96 751.96 141.37 751.96 145.49V172.94C750.13 177.97 741.44 182.09 730 188.04C718.56 193.99 704.84 202.68 693.86 216.4C682.88 230.12 674.65 250.25 674.65 278.16M589.58 24.25V86.01H566.25V127.64H589.58V255.73C589.58 270.37 590.04 291.41 596.44 308.79C602.84 326.17 615.65 339.9 642.64 339.9C649.96 339.9 655.91 339.44 660.48 338.53C662.77 338.07 665.05 337.16 667.34 336.7V291.41C665.51 291.87 663.68 291.87 661.85 292.33C658.65 292.79 654.07 293.24 650.41 293.24C643.09 293.24 639.43 286.38 637.6 278.14C635.77 269.9 635.77 259.84 635.77 252.07V127.64H667.34V86.01H635.77V24.25H589.57H589.58ZM554.35 86H508.15V336.22H554.35V86ZM508.15 46.2H554.35V0H508.15V46.2ZM434.51 281.33C434.51 290.02 427.65 296.43 420.79 296.43C413.93 296.43 408.44 290.03 408.44 281.33V140.89C408.44 132.2 413.93 125.79 420.79 125.79C427.65 125.79 434.51 133.57 434.51 140.89V281.33ZM480.71 0H434.51V102.47C430.39 98.81 426.73 95.61 422.62 92.41C415.76 87.38 406.61 82.35 397.92 82.35C385.11 82.35 376.42 89.67 370.93 98.82C364.98 108.43 362.24 120.78 362.24 131.3V290.95C362.24 301.47 364.99 313.82 370.93 322.97C376.42 332.58 385.11 339.9 397.92 339.9C402.04 339.9 406.61 338.99 411.19 336.7C419.88 332.58 426.74 327.09 434.52 319.78V336.25H480.72V0H480.71ZM265.25 148.21C265.71 143.18 266.16 139.06 267.54 135.4C269.83 128.54 273.49 122.59 282.18 122.59C286.3 122.59 289.96 123.96 292.24 126.25C296.82 131.74 298.64 138.6 298.64 148.21V183.43H265.25V148.21ZM298.65 246.57V274.02C298.65 279.05 298.19 283.17 296.82 286.83C294.99 293.69 290.87 299.18 282.18 299.18C278.06 299.18 274.86 297.81 272.57 295.52C268.45 290.49 265.71 283.63 265.25 274.02V219.58H341.64V146.85C341.18 134.96 338.44 124.43 334.32 114.83C327 98.82 311.9 82.35 282.17 82.35C267.07 82.35 255.64 85.55 247.86 92.41C231.39 106.13 223.62 123.97 222.24 148.22V274.02C222.7 286.37 225.44 297.35 229.56 306.96C236.88 323.43 251.97 339.9 281.71 339.9C296.81 339.9 308.24 336.7 316.48 329.84C332.95 316.57 340.27 299.65 341.64 275.4V246.58H298.64L298.65 246.57ZM116.58 336.23L148.14 124.89L149.97 110.71H152.72V336.23H198.46V0H138.08L108.8 153.7L106.51 171.54H105.59L103.3 153.7L74.0402 0H13.6602V336.23H59.4102V110.7H62.1502L63.9802 124.88L95.5402 336.22H116.58V336.23Z" />
<path class="st1" d="M861.6 1105.99C861.6 1124.55 867.63 1138.47 875.98 1151C884.33 1163.53 895 1173.27 906.14 1183.94C920.52 1198.32 935.37 1213.63 935.37 1228.95C935.37 1244.27 932.59 1259.57 919.13 1259.57C909.39 1259.57 904.28 1253.07 901.03 1245.19C897.78 1237.77 897.32 1228.02 897.32 1221.06H853.71C853.71 1234.52 855.57 1254 864.85 1269.78C874.13 1285.55 890.83 1298.55 919.14 1298.55C941.41 1298.55 956.26 1288.81 966 1275.35C975.28 1262.36 978.99 1245.19 978.99 1228.95C978.99 1212.71 972.96 1197.86 965.07 1184.87C957.18 1172.34 945.58 1161.21 935.84 1151.46C928.42 1144.5 920.99 1137.08 915.42 1129.65C909.39 1122.23 905.21 1113.88 905.21 1105.99C905.21 1099.96 905.67 1092.07 907.99 1086.5C909.85 1080.93 913.56 1076.29 919.59 1076.29C927.01 1076.29 930.73 1080.93 933.05 1086.5C934.91 1092.53 934.91 1099.96 934.91 1105.99H978.52C978.52 1091.61 977.13 1073.98 969.24 1060.52C961.35 1047.06 946.04 1036.86 918.67 1037.32C896.4 1037.78 882.01 1047.53 873.2 1060.52C864.38 1073.98 861.6 1091.14 861.6 1105.99ZM775.77 1253.08C770.2 1253.08 764.63 1251.69 764.63 1241.94V1041.03H717.77V1248.9C717.77 1259.57 720.55 1272.1 726.12 1281.38C731.69 1291.12 740.5 1298.55 753.03 1298.55C757.21 1298.55 761.38 1297.16 765.56 1294.84C773.91 1290.2 780.41 1283.7 785.98 1278.14C788.3 1275.82 790.16 1273.96 791.08 1273.5V1294.84H837.94V1041.04H791.08V1241.02C789.69 1243.34 788.3 1245.66 786.91 1247.05C783.66 1250.3 780.88 1253.08 775.77 1253.08ZM690.86 1041.04H644V1294.84H690.86V1041.04ZM643.99 1000.67H690.85V953.806H643.99V1000.67ZM616.16 953.806H569.3V1294.84H616.16V953.806ZM470 1104.14C470.46 1099.04 470.93 1094.86 472.32 1091.15C474.64 1084.19 478.35 1078.16 487.17 1078.16C491.35 1078.16 495.06 1079.55 497.38 1081.87C502.02 1087.44 503.88 1094.4 503.88 1104.14V1139.87H470.01V1104.14H470ZM503.87 1203.9V1231.74C503.87 1236.84 503.41 1241.02 502.01 1244.73C500.15 1251.69 495.98 1257.26 487.16 1257.26C482.98 1257.26 479.74 1255.87 477.42 1253.55C473.24 1248.45 470.46 1241.49 470 1231.74V1176.53H547.49V1102.76C547.03 1090.7 544.24 1080.02 540.07 1070.28C532.65 1054.04 517.34 1037.34 487.18 1037.34C471.87 1037.34 460.27 1040.59 452.38 1047.55C435.68 1061.47 427.79 1079.56 426.4 1104.16V1231.76C426.86 1244.29 429.65 1255.42 433.82 1265.17C441.24 1281.87 456.56 1298.58 486.72 1298.58C502.03 1298.58 513.63 1295.33 521.98 1288.37C538.68 1274.92 546.11 1257.75 547.5 1233.16V1203.93H503.89L503.87 1203.9ZM418.97 1037.32C401.8 1037.32 390.67 1043.82 383.24 1050.78C375.82 1058.2 372.57 1066.09 372.1 1069.34V1041.04H325.24V1294.84H372.1V1118.52C372.1 1110.63 373.49 1102.75 382.31 1095.32C389.73 1088.36 398.55 1087.43 405.97 1087.43C410.15 1087.43 414.79 1087.89 418.96 1089.29V1037.32H418.97ZM235.24 1253.08C229.67 1253.08 224.1 1251.69 224.1 1241.94V1041.03H177.24V1248.9C177.24 1259.57 180.02 1272.1 185.59 1281.38C191.16 1291.12 199.97 1298.55 212.5 1298.55C216.68 1298.55 220.85 1297.16 225.03 1294.84C233.38 1290.2 239.88 1283.7 245.45 1278.14C247.77 1275.82 249.63 1273.96 250.55 1273.5V1294.84H297.41V1041.04H250.55V1241.02C249.16 1243.34 247.77 1245.66 246.37 1247.05C243.12 1250.3 240.34 1253.08 235.23 1253.08M99.29 1172.34H64.96L79.34 1064.7L80.73 1055.88H83.51L84.9 1064.7L99.28 1172.34H99.29ZM48.72 1294.84L58 1225.24H106.25L115.53 1294.84H164.25L112.75 953.806H51.5L0 1294.84H48.72Z" />
<path class="st1" d="M751.18 719.986C751.18 738.546 757.21 752.466 765.56 764.996C773.91 777.526 784.58 787.266 795.72 797.936C810.1 812.316 824.95 827.636 824.95 842.946C824.95 858.256 822.17 873.566 808.71 873.566C798.97 873.566 793.86 867.066 790.61 859.186C787.36 851.766 786.9 842.016 786.9 835.056H743.29C743.29 848.516 745.15 867.996 754.43 883.776C763.71 899.546 780.41 912.546 808.72 912.546C830.99 912.546 845.84 902.806 855.58 889.346C864.86 876.356 868.57 859.186 868.57 842.946C868.57 826.706 862.54 811.856 854.65 798.866C846.76 786.336 835.16 775.206 825.42 765.456C818 758.496 810.57 751.076 805.01 743.646C798.98 736.226 794.8 727.876 794.8 719.986C794.8 713.956 795.26 706.066 797.58 700.496C799.44 694.926 803.15 690.286 809.18 690.286C816.6 690.286 820.31 694.926 822.63 700.496C824.49 706.526 824.49 713.956 824.49 719.986H868.1C868.1 705.606 866.71 687.966 858.82 674.516C850.93 661.056 835.62 650.856 808.25 651.316C785.98 651.776 771.6 661.526 762.78 674.516C753.96 687.976 751.18 705.136 751.18 719.986ZM665.34 867.066C659.77 867.066 654.2 865.676 654.2 855.926V655.016H607.34V862.876C607.34 873.546 610.12 886.076 615.69 895.356C621.26 905.096 630.07 912.526 642.6 912.526C646.78 912.526 650.95 911.136 655.13 908.816C663.48 904.176 669.98 897.676 675.55 892.116C677.87 889.796 679.73 887.936 680.65 887.476V908.816H727.51V655.016H680.65V854.996C679.26 857.316 677.87 859.636 676.47 861.026C673.22 864.276 670.44 867.056 665.33 867.056M514.55 713.486C514.55 704.206 515.01 693.076 527.54 693.076C538.21 693.076 541 698.176 541 713.486V744.106H587.86V724.156C587.86 695.856 582.76 677.756 572.55 666.626C562.34 655.486 547.5 651.316 527.54 651.316C510.84 651.316 495.53 655.956 484.85 667.556C474.18 679.156 467.68 698.176 467.68 726.486V837.376C467.68 865.676 474.17 884.706 484.85 896.306C495.52 907.906 510.83 912.546 527.54 912.546C547.49 912.546 562.34 908.366 572.55 897.236C582.76 886.096 587.86 868.006 587.86 839.706V815.116H541V850.376C541 865.686 538.22 870.786 527.54 870.786C515.01 870.786 514.55 859.656 514.55 850.376V713.496V713.486ZM462.13 651.316C444.96 651.316 433.83 657.816 426.4 664.776C418.98 672.196 415.73 680.086 415.26 683.336V655.036H368.4V908.836H415.26V732.526C415.26 724.636 416.65 716.746 425.47 709.326C432.89 702.366 441.71 701.436 449.13 701.436C453.31 701.436 457.95 701.896 462.12 703.296V651.326L462.13 651.316ZM267.72 842.936C267.72 818.806 277.46 796.076 300.2 786.326V851.286C300.2 860.106 291.38 866.596 280.71 866.596C275.14 866.596 271.89 862.416 270.04 856.856C268.18 851.756 267.72 846.186 267.72 842.936ZM221.78 849.896C221.78 876.346 228.28 892.116 236.16 900.936C243.58 910.216 253.33 912.536 259.36 912.536C268.64 912.536 277.46 908.826 283.95 903.716C290.45 898.616 294.62 892.576 296.94 888.406H300.19C300.19 891.656 300.19 903.716 304.37 908.816H350.31C348.45 897.676 347.06 887.476 347.06 864.736V708.836C347.06 692.136 340.56 677.746 329.89 667.546C319.22 657.336 305.3 651.306 289.99 651.306C271.89 651.306 256.12 658.726 244.98 671.256C233.84 683.786 226.88 700.486 226.88 719.046V729.716H273.74V717.656C273.74 713.476 274.2 709.306 274.67 705.596C276.06 698.176 279.31 692.136 287.2 692.136C293.23 692.136 296.94 695.386 298.8 700.026C300.19 704.666 300.19 711.166 300.19 715.336V743.176C298.33 748.276 289.52 752.456 277.92 758.486C266.32 764.516 252.4 773.336 241.27 787.256C230.14 801.176 221.78 821.596 221.78 849.896ZM118.32 908.826L150.33 694.466L152.19 680.086H154.97V908.826H201.37V567.796H140.12L110.43 723.696L108.11 741.786H107.18L104.86 723.696L75.1699 567.796H13.9199V908.826H60.3199V680.086H63.0999L64.9599 694.466L96.9699 908.826H118.31H118.32Z" />
<path class="st1" d="M96.7156 399.9L91.3887 412.76L99.2878 416.032L104.615 403.172L96.7156 399.9Z" />
<path class="st1" d="M125.81 438.746L132.66 435.906L129.39 428.006L116.53 433.326L119.79 441.227L125.81 438.746Z" />
<path class="st1" d="M56.3502 410.107L58.8302 416.016L58.8702 416.116L66.7602 412.806L61.3802 399.966L53.4902 403.276L56.3502 410.107Z" />
<path class="st1" d="M45.8603 471.857L54.6303 468.227L69.4903 462.076C70.7103 461.576 72.0303 461.706 73.1203 462.436C74.2103 463.166 74.8403 464.336 74.8403 465.646V475.746H83.3903V465.646C83.3903 464.336 84.0203 463.166 85.1103 462.436C86.2003 461.706 87.5303 461.576 88.7403 462.076L112.36 471.857L115.63 463.956L90.2803 453.446L113.36 443.886L110.08 435.986L87.0903 445.516L96.6203 422.516L88.7203 419.236L79.1003 442.346L69.4603 419.246L61.5703 422.536L71.1603 445.526L48.1303 435.986L44.8603 443.886L67.9403 453.446L42.5903 463.956L45.8603 471.857Z" />
<path class="st1" d="M32.39 438.746L38.41 441.227L41.68 433.326L28.81 428.006L25.54 435.906L32.4 438.746H32.39Z" />
<path class="st1" d="M99.4804 481.977C91.4504 481.977 84.2703 485.657 79.5303 491.417C74.8004 485.407 67.4604 481.547 59.2304 481.547H14.3604V492.946H59.2404C67.1904 492.946 73.6604 499.416 73.6604 507.366C73.6604 507.506 73.6604 507.657 73.6604 507.797H85.0603C85.0603 499.847 91.5304 493.376 99.4804 493.376H144.36V481.977H99.4804Z" />
</svg>
